VIDEO INFO:


Format                           : AVI
Format/Info                      : Audio Video Interleave
Format profile                   : OpenDML
Format settings                  : rec
File size                        : 1.37 GiB
Duration                         : 1h 57mn
Overall bit rate                 : 1 669 Kbps
Writing application              : AVI-Mux GUI 1.17.7, Aug  8 2006  20:59:17

Video
ID                               : 0
Format                           : MPEG-4 Visual
Format profile                   : Advanced Simple@L5
Format settings, BVOP            : 1
Format settings, QPel            : No
Format settings, GMC             : No warppoints
Format settings, Matrix          : Custom
Codec ID                         : XVID
Codec ID/Hint                    : XviD
Duration                         : 1h 57mn
Bit rate                         : 1 439 Kbps
Width                            : 608 pixels
Height                           : 416 pixels
Display aspect ratio             : 3:2
Frame rate                       : 25.000 fps
Color space                      : YUV
Chroma subsampling               : 4:2:0
Bit depth                        : 8 bits
Scan type                        : Progressive
Compression mode                 : Lossy
Bits/(Pixel*Frame)               : 0.228
Stream size                      : 1.18 GiB (86%)
Writing library                  : XviD 58

Audio
ID                               : 1
Format                           : AC-3
Format/Info                      : Audio Coding 3
Mode extension                   : CM (complete main)
Codec ID                         : 2000
Duration                         : 1h 57mn
Bit rate mode                    : Constant
Bit rate                         : 224 Kbps
Channel(s)                       : 2 channels
Channel positions                : Front: L R
Sampling rate                    : 48.0 KHz
Bit depth                        : 16 bits
Compression mode                 : Lossy
Stream size                      : 188 MiB (13%)
Alignment                        : Aligned on interleaves
Interleave, duration             : 64 ms (1.60 video frames)
Interleave, preload duration     : 192 ms

Text
ID                               : 2
Stream size                      : 87.5 KiB (0%)

--------------------------------------
Holland
Drama
115 minuten

director Paul Verhoeven
with Hans van Tongeren, Renée Soutendijk and Rutger Hauer

A Dutch film, post-Saturday Night Fever, which follows the lives of three young men who are amateur dirt-bike motorcycle racers. They each fall in love with a young woman who, with her brother, sells French fries and hot dogs at the races. Everyone is looking for a better life. She wants out of the business and away from her brother. The motocross racers want to make their marks as professional racers, like their hero, Gerrit Witkamp.

-Subtitles (english) in the film with the possibility to set it ON/OFF. 

